<svg width="20" height="21" viewBox="0 0 20 21" fill="none" xmlns="http://www.w3.org/2000/svg">
<path d="M7.2207 13.4291V14.4247C7.2207 14.856 7.0517 15.2695 6.75088 15.5745C6.45006 15.8794 6.04205 16.0507 5.61663 16.0507C5.1912 16.0507 4.7832 15.8794 4.48238 15.5745C4.18156 15.2695 4.01256 14.856 4.01256 14.4247L4.01256 12.0994C2.88767 11.4776 2.22837 10.8747 1.84265 10.377L1.84265 14.4316C1.83199 14.9407 1.9217 15.4468 2.10653 15.9203C2.29136 16.3938 2.56758 16.8251 2.91901 17.189C3.27043 17.5529 3.68998 17.842 4.15306 18.0393C4.61614 18.2367 5.11343 18.3383 5.61578 18.3383C6.11812 18.3383 6.61542 18.2367 7.0785 18.0393C7.54158 17.842 7.96113 17.5529 8.31255 17.189C8.66397 16.8251 8.94019 16.3938 9.12502 15.9203C9.30985 15.4468 9.39957 14.9407 9.38891 14.4316V14.0389C8.59027 13.8442 7.8698 13.641 7.2207 13.4291Z" fill="#879BB1"/>
<path d="M18.1592 8.05566V9.33544C18.127 9.59036 17.8755 10.5601 15.9893 11.6659C14.9713 12.2384 13.8966 12.7003 12.7829 13.0439C12.1389 13.2523 11.4235 13.459 10.613 13.6571C10.4159 13.707 10.212 13.7535 10.0047 13.8018C9.79566 13.7535 9.59005 13.7053 9.39124 13.6554C8.58581 13.4573 7.86194 13.2506 7.22303 13.0422C6.10828 12.7 5.0328 12.238 4.01489 11.6642C1.87047 10.4034 1.84668 9.32511 1.84668 9.27171L1.84668 8.05566C1.84708 7.86767 1.86128 7.67999 1.88916 7.49414C2.15254 7.97643 2.73878 8.66713 4.01659 9.40089C5.03676 9.96643 6.11185 10.4236 7.22473 10.7651C7.86874 10.9735 8.5841 11.1785 9.39293 11.3766C9.57985 11.4231 9.77186 11.4661 9.96727 11.5126H10.0064H10.0471L10.6147 11.3783C11.4184 11.1802 12.144 10.9752 12.7846 10.7668C13.8966 10.4252 14.9711 9.96863 15.991 9.40434C17.2688 8.6723 17.8602 7.98676 18.1219 7.50103C18.1481 7.68469 18.1606 7.87009 18.1592 8.05566Z" fill="#879BB1"/>
<path d="M15.9871 12.1072V14.4308C15.9941 14.6487 15.9578 14.8658 15.8803 15.0691C15.8029 15.2725 15.686 15.458 15.5364 15.6146C15.3868 15.7712 15.2077 15.8958 15.0097 15.9808C14.8117 16.0659 14.5989 16.1097 14.3838 16.1097C14.1688 16.1097 13.9559 16.0659 13.758 15.9808C13.56 15.8958 13.3809 15.7712 13.2313 15.6146C13.0817 15.458 12.9648 15.2725 12.8873 15.0691C12.8099 14.8658 12.7736 14.6487 12.7806 14.4308V13.4301C12.1315 13.6391 11.4082 13.84 10.6107 14.0329V14.4239C10.6001 14.933 10.6898 15.4391 10.8746 15.9126C11.0594 16.3861 11.3356 16.8175 11.6871 17.1813C12.0385 17.5452 12.458 17.8343 12.9211 18.0316C13.3842 18.229 13.8815 18.3307 14.3838 18.3307C14.8862 18.3307 15.3835 18.229 15.8466 18.0316C16.3096 17.8343 16.7292 17.5452 17.0806 17.1813C17.432 16.8175 17.7083 16.3861 17.8931 15.9126C18.0779 15.4391 18.1676 14.933 18.157 14.4239V10.3848C17.7695 10.886 17.1102 11.4871 15.9871 12.1072Z" fill="#879BB1"/>
<path d="M8.28413 5.16138C7.95385 4.82624 7.5649 4.55638 7.13715 4.3656C6.96136 4.53868 6.75171 4.67245 6.52173 4.75827C6.29176 4.84408 6.04658 4.88004 5.80204 4.86381C5.5575 4.84757 5.31904 4.77951 5.10207 4.66403C4.8851 4.54854 4.69445 4.3882 4.54243 4.19336C3.95744 4.36961 3.42335 4.68704 2.98594 5.11844C2.54852 5.54983 2.22084 6.08232 2.03098 6.67025C1.99346 6.77766 1.96336 6.88759 1.94092 6.99924C2.11084 7.4333 2.62061 8.17739 4.01227 8.99901L4.01227 7.86047C4.01227 7.42922 4.18127 7.01564 4.48209 6.71071C4.78291 6.40578 5.19092 6.23447 5.61634 6.23447C6.04177 6.23447 6.44977 6.40578 6.75059 6.71071C7.05141 7.01564 7.22041 7.42922 7.22041 7.86047L7.22041 10.3787C7.86272 10.5871 8.57979 10.7938 9.38862 10.9919L9.38862 7.87252C9.3899 7.36913 9.29297 6.87045 9.10342 6.40516C8.91386 5.93988 8.63543 5.51718 8.28413 5.16138Z" fill="#879BB1"/>
<path d="M17.9724 6.69253C17.7844 6.10205 17.4571 5.567 17.0188 5.13386C16.5805 4.70071 16.0446 4.38256 15.4575 4.20703C15.3055 4.40187 15.1148 4.56221 14.8979 4.6777C14.6809 4.79318 14.4424 4.86124 14.1979 4.87747C13.9534 4.89371 13.7082 4.85775 13.4782 4.77194C13.2482 4.68612 13.0386 4.55236 12.8628 4.37928C12.1926 4.67832 11.6228 5.16869 11.223 5.79053C10.8232 6.41238 10.6107 7.13877 10.6113 7.88102V11.0142C11.4168 10.8161 12.1406 10.6094 12.7812 10.401L12.7812 7.87413C12.7742 7.65626 12.8105 7.43919 12.888 7.23583C12.9654 7.03246 13.0823 6.84695 13.2319 6.69033C13.3815 6.5337 13.5606 6.40916 13.7586 6.32411C13.9566 6.23905 14.1694 6.19522 14.3845 6.19522C14.5995 6.19522 14.8123 6.23905 15.0103 6.32411C15.2083 6.40916 15.3874 6.5337 15.537 6.69033C15.6866 6.84695 15.8035 7.03246 15.881 7.23583C15.9584 7.43919 15.9947 7.65626 15.9877 7.87413V9.01612C17.3827 8.19795 17.8823 7.45558 18.0624 7.0198C18.0388 6.90899 18.0088 6.79971 17.9724 6.69253Z" fill="#879BB1"/>
<path d="M14.0943 4.3279C14.8178 4.3279 15.4044 3.73333 15.4044 2.99989C15.4044 2.26645 14.8178 1.67188 14.0943 1.67188C13.3707 1.67188 12.7842 2.26645 12.7842 2.99989C12.7842 3.73333 13.3707 4.3279 14.0943 4.3279Z" fill="#879BB1"/>
<path d="M5.90727 4.3279C6.63082 4.3279 7.21737 3.73333 7.21737 2.99989C7.21737 2.26645 6.63082 1.67188 5.90727 1.67188C5.18372 1.67188 4.59717 2.26645 4.59717 2.99989C4.59717 3.73333 5.18372 4.3279 5.90727 4.3279Z" fill="#879BB1"/>
</svg>
