<svg width="34" height="33" viewBox="0 0 34 33" fill="none" xmlns="http://www.w3.org/2000/svg">
<rect x="0.998535" width="32.0029" height="32.0029" rx="8" fill="#DA595E" fill-opacity="0.1"/>
<path fill-rule="evenodd" clip-rule="evenodd" d="M17.0002 14.5636C19.4668 14.5636 21.4663 12.5641 21.4663 10.0976C21.4663 9.84082 21.4446 9.58913 21.403 9.34424C23.4941 9.60637 24.5616 10.6108 24.555 13.2786V22.2294C24.555 24.3458 22.6057 24.847 21.1895 23.3353C20.5371 22.6352 19.5425 22.6909 18.9697 23.4547L18.1661 24.5288C17.5216 25.3801 16.4794 25.3801 15.8349 24.5288L15.0313 23.4547C14.4664 22.6988 13.4719 22.6431 12.8195 23.3353L12.8115 23.3433C11.4033 24.855 9.44604 24.3537 9.44604 22.2374V13.2786C9.44604 10.6145 10.5117 9.60916 12.5972 9.34533C12.5557 9.58988 12.5341 9.8412 12.5341 10.0976C12.5341 12.5641 14.5337 14.5636 17.0002 14.5636Z" fill="#D5444A"/>
<path d="M17.0668 6.83301C16.3189 6.83301 15.6267 7.09556 15.0777 7.53316C14.3457 8.11397 13.8843 9.01302 13.8843 10.0155C13.8843 11.7738 15.3084 13.198 17.0668 13.198C17.8704 13.198 18.6023 12.8957 19.1672 12.4024C19.8276 11.8216 20.2493 10.9703 20.2493 10.0155C20.2493 8.25718 18.8251 6.83301 17.0668 6.83301ZM17.8624 10.2144C17.8624 10.4213 17.751 10.6202 17.576 10.7236L16.5814 11.3203C16.486 11.384 16.3746 11.4079 16.2712 11.4079C16.0722 11.4079 15.8733 11.3044 15.762 11.1214C15.5949 10.835 15.6824 10.469 15.9688 10.3019L16.6769 9.88025V9.02098C16.669 8.69477 16.9395 8.42426 17.2657 8.42426C17.5919 8.42426 17.8624 8.69477 17.8624 9.02098V10.2144Z" fill="#D5444A"/>
<path d="M19.3873 20.6352H14.6135C14.2873 20.6352 14.0168 20.3647 14.0168 20.0385C14.0168 19.7123 14.2873 19.4418 14.6135 19.4418H19.3873C19.7135 19.4418 19.984 19.7123 19.984 20.0385C19.984 20.3647 19.7135 20.6352 19.3873 20.6352ZM20.1829 17.4527H13.8179C13.4917 17.4527 13.2212 17.1822 13.2212 16.856C13.2212 16.5298 13.4917 16.2593 13.8179 16.2593H20.1829C20.5091 16.2593 20.7796 16.5298 20.7796 16.856C20.7796 17.1822 20.5091 17.4527 20.1829 17.4527Z" fill="#E5E5E5"/>
</svg>
