<svg width="16" height="16" viewBox="0 0 16 16" fill="none" xmlns="http://www.w3.org/2000/svg">
<path d="M5.3335 3.8335C5.06016 3.8335 4.8335 3.60683 4.8335 3.3335V1.3335C4.8335 1.06016 5.06016 0.833496 5.3335 0.833496C5.60683 0.833496 5.8335 1.06016 5.8335 1.3335V3.3335C5.8335 3.60683 5.60683 3.8335 5.3335 3.8335Z" fill="#0060AF"/>
<path d="M10.6665 3.8335C10.3932 3.8335 10.1665 3.60683 10.1665 3.3335V1.3335C10.1665 1.06016 10.3932 0.833496 10.6665 0.833496C10.9398 0.833496 11.1665 1.06016 11.1665 1.3335V3.3335C11.1665 3.60683 10.9398 3.8335 10.6665 3.8335Z" fill="#0060AF"/>
<path d="M5.66667 9.66655C5.58 9.66655 5.49333 9.65322 5.41333 9.61322C5.33333 9.57989 5.26 9.53321 5.19333 9.47321C5.07333 9.34654 5 9.17322 5 8.99988C5 8.91322 5.02 8.82655 5.05333 8.74655C5.08667 8.66655 5.13333 8.59322 5.19333 8.52655C5.26 8.46655 5.33333 8.41987 5.41333 8.38654C5.65333 8.28654 5.95334 8.33989 6.14 8.52655C6.2 8.59322 6.24667 8.66655 6.28 8.74655C6.31333 8.82655 6.33333 8.91322 6.33333 8.99988C6.33333 9.17322 6.26 9.34654 6.14 9.47321C6.01334 9.59321 5.84 9.66655 5.66667 9.66655Z" fill="#0060AF"/>
<path d="M8.00016 9.66658C7.82683 9.66658 7.65349 9.59324 7.52682 9.47324C7.46682 9.40658 7.42016 9.33325 7.38683 9.25325C7.3535 9.17325 7.3335 9.08658 7.3335 8.99992C7.3335 8.82658 7.40682 8.65325 7.52682 8.52659C7.71349 8.33992 8.00683 8.27991 8.2535 8.38657C8.3335 8.41991 8.40683 8.46659 8.4735 8.52659C8.5935 8.65325 8.66683 8.82658 8.66683 8.99992C8.66683 9.08658 8.6535 9.17325 8.6135 9.25325C8.58016 9.33325 8.5335 9.40658 8.4735 9.47324C8.40683 9.53324 8.3335 9.57992 8.2535 9.61326C8.1735 9.65326 8.08683 9.66658 8.00016 9.66658Z" fill="#0060AF"/>
<path d="M5.66667 12.0001C5.58 12.0001 5.49333 11.9801 5.41333 11.9468C5.33333 11.9134 5.26 11.8667 5.19333 11.8067C5.07333 11.6801 5 11.5134 5 11.3334C5 11.2467 5.02 11.1601 5.05333 11.0801C5.08667 10.9934 5.13333 10.9268 5.19333 10.8601C5.26 10.8001 5.33333 10.7534 5.41333 10.7201C5.65333 10.6134 5.95334 10.6734 6.14 10.8601C6.2 10.9268 6.24667 10.9934 6.28 11.0801C6.31333 11.1601 6.33333 11.2467 6.33333 11.3334C6.33333 11.5134 6.26 11.6801 6.14 11.8067C6.01334 11.9267 5.84 12.0001 5.66667 12.0001Z" fill="#0060AF"/>
<path d="M13.6668 6.56006H2.3335C2.06016 6.56006 1.8335 6.33339 1.8335 6.06006C1.8335 5.78673 2.06016 5.56006 2.3335 5.56006H13.6668C13.9402 5.56006 14.1668 5.78673 14.1668 6.06006C14.1668 6.33339 13.9402 6.56006 13.6668 6.56006Z" fill="#0060AF"/>
<path d="M12.0002 15.8333C10.2535 15.8333 8.8335 14.4133 8.8335 12.6667C8.8335 10.92 10.2535 9.5 12.0002 9.5C13.7468 9.5 15.1668 10.92 15.1668 12.6667C15.1668 14.4133 13.7468 15.8333 12.0002 15.8333ZM12.0002 10.5C10.8068 10.5 9.8335 11.4733 9.8335 12.6667C9.8335 13.86 10.8068 14.8333 12.0002 14.8333C13.1935 14.8333 14.1668 13.86 14.1668 12.6667C14.1668 11.4733 13.1935 10.5 12.0002 10.5Z" fill="#0060AF"/>
<path d="M12.9933 13.2002H11C10.7267 13.2002 10.5 12.9735 10.5 12.7002C10.5 12.4269 10.7267 12.2002 11 12.2002H12.9933C13.2667 12.2002 13.4933 12.4269 13.4933 12.7002C13.4933 12.9735 13.2733 13.2002 12.9933 13.2002Z" fill="#0060AF"/>
<path d="M12 14.2199C11.7267 14.2199 11.5 13.9932 11.5 13.7199V11.7266C11.5 11.4532 11.7267 11.2266 12 11.2266C12.2733 11.2266 12.5 11.4532 12.5 11.7266V13.7199C12.5 13.9932 12.2733 14.2199 12 14.2199Z" fill="#0060AF"/>
<path d="M10.2467 15.1668H5.33333C2.9 15.1668 1.5 13.7668 1.5 11.3335V5.66683C1.5 3.2335 2.9 1.8335 5.33333 1.8335H10.6667C13.1 1.8335 14.5 3.2335 14.5 5.66683V10.9068C14.5 11.1135 14.3733 11.3002 14.1733 11.3735C13.98 11.4468 13.76 11.3935 13.62 11.2335C13.2067 10.7668 12.6133 10.5002 11.9933 10.5002C10.8 10.5002 9.82667 11.4735 9.82667 12.6668C9.82667 13.0602 9.93334 13.4468 10.14 13.7802C10.2533 13.9802 10.4 14.1468 10.56 14.2868C10.72 14.4202 10.78 14.6402 10.7067 14.8402C10.6467 15.0335 10.46 15.1668 10.2467 15.1668ZM5.33333 2.8335C3.42667 2.8335 2.5 3.76016 2.5 5.66683V11.3335C2.5 13.2402 3.42667 14.1668 5.33333 14.1668H9.21334C8.96667 13.7135 8.83333 13.2002 8.83333 12.6668C8.83333 10.9202 10.2533 9.50016 12 9.50016C12.5267 9.50016 13.0467 9.6335 13.5 9.88017V5.66683C13.5 3.76016 12.5733 2.8335 10.6667 2.8335H5.33333Z" fill="#0060AF"/>
</svg>
