<svg width="20" height="21" viewBox="0 0 20 21" fill="none" xmlns="http://www.w3.org/2000/svg">
<path fill-rule="evenodd" clip-rule="evenodd" d="M6.08301 1.66992C3.87387 1.66992 2.08301 3.46078 2.08301 5.66992V14.3366C2.08301 16.5457 3.87387 18.3366 6.08301 18.3366H13.9163C16.1255 18.3366 17.9163 16.5457 17.9163 14.3366V5.66992C17.9163 3.46078 16.1255 1.66992 13.9163 1.66992H6.08301ZM6.43509 7.28773L8.31009 5.41273C8.55176 5.17106 8.55176 4.77106 8.31009 4.52939C8.06009 4.28773 7.66842 4.28773 7.42676 4.52939L5.99342 5.96273L5.81009 5.77939C5.56009 5.53773 5.16842 5.53773 4.92676 5.77939C4.67676 6.02106 4.67676 6.42106 4.92676 6.66273L5.55176 7.28773C5.66842 7.41273 5.83509 7.47106 5.99342 7.47106C6.15176 7.47106 6.31009 7.41273 6.43509 7.28773ZM10.2601 6.84606H14.6351C14.9851 6.84606 15.2601 6.56273 15.2601 6.22106C15.2601 5.87939 14.9851 5.59606 14.6351 5.59606H10.2601C9.91842 5.59606 9.63509 5.87939 9.63509 6.22106C9.63509 6.56273 9.91842 6.84606 10.2601 6.84606ZM8.31009 9.50615L6.43509 11.3812C6.31009 11.5062 6.15176 11.5645 5.99342 11.5645C5.83509 11.5645 5.66842 11.5062 5.55176 11.3812L4.92676 10.7562C4.67676 10.5145 4.67676 10.1145 4.92676 9.87282C5.16842 9.63115 5.56009 9.63115 5.81009 9.87282L5.99342 10.0562L7.42676 8.62282C7.66842 8.38115 8.06009 8.38115 8.31009 8.62282C8.55176 8.86449 8.55176 9.26449 8.31009 9.50615ZM14.6351 10.9395H10.2601C9.91842 10.9395 9.63509 10.6562 9.63509 10.3145C9.63509 9.97282 9.91842 9.68949 10.2601 9.68949H14.6351C14.9851 9.68949 15.2601 9.97282 15.2601 10.3145C15.2601 10.6562 14.9851 10.9395 14.6351 10.9395ZM6.43509 15.4746L8.31009 13.5996C8.55176 13.3579 8.55176 12.9579 8.31009 12.7162C8.06009 12.4746 7.66842 12.4746 7.42676 12.7162L5.99342 14.1496L5.81009 13.9662C5.56009 13.7246 5.16842 13.7246 4.92676 13.9662C4.67676 14.2079 4.67676 14.6079 4.92676 14.8496L5.55176 15.4746C5.66842 15.5996 5.83509 15.6579 5.99342 15.6579C6.15176 15.6579 6.31009 15.5996 6.43509 15.4746ZM10.2601 15.0329H14.6351C14.9851 15.0329 15.2601 14.7496 15.2601 14.4079C15.2601 14.0662 14.9851 13.7829 14.6351 13.7829H10.2601C9.91842 13.7829 9.63509 14.0662 9.63509 14.4079C9.63509 14.7496 9.91842 15.0329 10.2601 15.0329Z" fill="#879BB1"/>
</svg>
