<svg width="20" height="21" viewBox="0 0 20 21" fill="none" xmlns="http://www.w3.org/2000/svg">
<path fill-rule="evenodd" clip-rule="evenodd" d="M10.0003 2.00391C8.75333 2.00391 7.22809 2.46 6.32739 2.77332C5.88841 2.92603 5.66823 3.40319 5.81366 3.84465L6.76823 6.74255C6.5605 7.1945 6.44476 7.69734 6.44476 8.22609C6.44476 10.1898 8.03662 11.7816 10.0003 11.7816C11.964 11.7816 13.5558 10.1898 13.5558 8.22609C13.5558 7.69734 13.4401 7.1945 13.2323 6.7425L14.1869 3.84465C14.3324 3.40319 14.1122 2.92603 13.6732 2.77332C12.7725 2.46 11.2472 2.00391 10.0003 2.00391ZM7.50249 7.5261C9.17208 6.84037 10.8285 6.84037 12.4981 7.5261C12.525 7.53712 12.5527 7.54543 12.5809 7.55099C12.637 7.76636 12.667 7.99258 12.667 8.22609C12.667 9.69884 11.473 10.8927 10.0003 10.8927C8.52755 10.8927 7.33365 9.69884 7.33365 8.22609C7.33365 7.99258 7.36356 7.76636 7.41974 7.55099C7.44787 7.54543 7.47556 7.53712 7.50249 7.5261ZM10.4447 4.22612H11.3336V5.115H10.4447V6.00388H9.55586V5.115H8.66697V4.22612H9.55586V3.33723H10.4447V4.22612Z" fill="#879BB1"/>
<path fill-rule="evenodd" clip-rule="evenodd" d="M9.4892 13.6448L6.83491 11.7812C6.83491 11.7812 2 13.2893 2 15.0999V18.0035H17.9999V15.0999C17.9999 13.2893 13.165 11.7812 13.165 11.7812L10.5107 13.6448C10.2042 13.86 9.79569 13.86 9.4892 13.6448ZM13.5555 13.559H14.4444V14.4479H15.3333V15.3368H14.4444V16.2257H13.5555V15.3368H12.6666V14.4479H13.5555V13.559Z" fill="#879BB1"/>
</svg>
