<svg width="100" height="100" viewBox="0 0 100 100" fill="none" xmlns="http://www.w3.org/2000/svg">
<path d="M48.2933 92.0582C71.5214 92.0582 90.3514 73.2281 90.3514 50.0001C90.3514 26.772 71.5214 7.94189 48.2933 7.94189C25.0652 7.94189 6.23511 26.772 6.23511 50.0001C6.23511 73.2281 25.0652 92.0582 48.2933 92.0582Z" fill="url(#paint0_linear_123_160)"/>
<path fill-rule="evenodd" clip-rule="evenodd" d="M48.3598 12.6321C48.1497 12.5454 47.9245 12.501 47.6972 12.5014L47.6954 12.5014C47.2364 12.5018 46.7964 12.6842 46.4719 13.0088C46.1476 13.3331 45.9651 13.7728 45.9645 14.2314V16.4093H41.6604L41.6604 14.2285C41.6618 12.6294 42.2977 11.0961 43.4284 9.96531C44.559 8.83474 46.0919 8.19889 47.6908 8.19727L47.6916 8.19727C48.4842 8.19615 49.2692 8.35118 50.0018 8.65352C50.7349 8.9561 51.4013 9.40027 51.9626 9.96064C52.5239 10.521 52.9692 11.1866 53.2731 11.9192C53.5769 12.6518 53.7333 13.4372 53.7333 14.2304V16.3287H49.4292V14.2304C49.4292 14.0031 49.3844 13.778 49.2973 13.568C49.2103 13.358 49.0826 13.1673 48.9218 13.0067C48.7609 12.8461 48.5699 12.7188 48.3598 12.6321ZM47.6916 8.19727L47.6908 8.19727Z" fill="url(#paint1_linear_123_160)"/>
<path d="M47.9582 86.7421C56.8788 86.7421 64.1103 79.5106 64.1103 70.5901C64.1103 61.6695 56.8788 54.438 47.9582 54.438C39.0377 54.438 31.8062 61.6695 31.8062 70.5901C31.8062 79.5106 39.0377 86.7421 47.9582 86.7421Z" fill="url(#paint2_linear_123_160)"/>
<path d="M73.4444 52.7821V40.3902C73.4444 33.6311 70.7594 27.1487 65.9799 22.3693C61.2005 17.5898 54.7182 14.9048 47.959 14.9048C41.1999 14.9048 34.7175 17.5898 29.9381 22.3693C25.1586 27.1487 22.4736 33.6311 22.4736 40.3902V52.7821C22.4739 55.629 21.6685 58.4179 20.1506 60.8264C18.6326 63.2349 16.4641 65.1647 13.8956 66.3927C13.3053 66.6738 12.807 67.1168 12.4587 67.6702C12.1104 68.2236 11.9264 68.8645 11.9282 69.5183V69.5855C11.9278 69.8216 11.9739 70.0556 12.064 70.2739C12.1541 70.4922 12.2863 70.6906 12.4531 70.8577C12.62 71.0249 12.8181 71.1575 13.0363 71.248C13.2544 71.3384 13.4882 71.385 13.7244 71.385H82.1903C82.4264 71.385 82.6603 71.3384 82.8784 71.248C83.0965 71.1575 83.2947 71.0249 83.4615 70.8577C83.6284 70.6906 83.7606 70.4922 83.8507 70.2739C83.9407 70.0556 83.9869 69.8216 83.9864 69.5855V69.5183C83.9867 68.8666 83.8023 68.228 83.4547 67.6767C83.1071 67.1253 82.6105 66.6836 82.0224 66.4027C79.4524 65.174 77.2828 63.2427 75.7648 60.8322C74.2467 58.4218 73.4422 55.6307 73.4444 52.7821Z" fill="url(#paint3_linear_123_160)"/>
<path d="M85.2797 28.7534C85.5926 27.4573 87.4362 27.4573 87.749 28.7534V28.7534C87.8609 29.2166 88.2225 29.5783 88.6857 29.6901V29.6901C89.9818 30.003 89.9818 31.8466 88.6857 32.1594V32.1594C88.2225 32.2713 87.8609 32.6329 87.749 33.0961V33.0961C87.4362 34.3922 85.5926 34.3922 85.2797 33.0961V33.0961C85.1679 32.6329 84.8062 32.2713 84.343 32.1594V32.1594C83.0469 31.8466 83.0469 30.003 84.343 29.6901V29.6901C84.8062 29.5783 85.1679 29.2166 85.2797 28.7534V28.7534Z" fill="#9DD0FF"/>
<path d="M17.5585 79.0733C17.8714 77.7771 19.715 77.7771 20.0278 79.0733V79.0733C20.1397 79.5365 20.5013 79.8981 20.9645 80.0099V80.0099C22.2606 80.3228 22.2606 82.1664 20.9645 82.4793V82.4793C20.5013 82.5911 20.1397 82.9527 20.0278 83.4159V83.4159C19.715 84.712 17.8714 84.712 17.5585 83.4159V83.4159C17.4467 82.9527 17.085 82.5911 16.6219 82.4793V82.4793C15.3257 82.1664 15.3257 80.3228 16.6219 80.0099V80.0099C17.085 79.8981 17.4467 79.5365 17.5585 79.0733V79.0733Z" fill="#9DD0FF"/>
<circle cx="66.7444" cy="25.4991" r="10.6372" fill="url(#paint4_linear_123_160)"/>
<circle cx="66.7444" cy="25.4991" r="11.2775" stroke="white" stroke-opacity="0.5" stroke-width="1.28049"/>
<g filter="url(#filter0_d_123_160)">
<path d="M65.366 27.7463V27.5608C65.3697 26.9242 65.4261 26.4167 65.5352 26.0384C65.648 25.66 65.8117 25.3545 66.0263 25.1216C66.2409 24.8888 66.4992 24.6778 66.8011 24.4887C67.0267 24.3432 67.2286 24.1922 67.4068 24.0358C67.5851 23.8793 67.7269 23.7066 67.8324 23.5174C67.9379 23.3246 67.9907 23.11 67.9907 22.8735C67.9907 22.6225 67.9307 22.4024 67.8106 22.2132C67.6906 22.0241 67.5287 21.8786 67.325 21.7767C67.1249 21.6749 66.903 21.6239 66.6593 21.6239C66.4228 21.6239 66.1991 21.6767 65.9881 21.7822C65.7771 21.884 65.6043 22.0368 65.4697 22.2405C65.3351 22.4406 65.2624 22.6898 65.2514 22.9881H63.0251C63.0433 22.2605 63.2179 21.6603 63.549 21.1874C63.88 20.7108 64.3184 20.3562 64.864 20.1233C65.4097 19.8869 66.0117 19.7687 66.6702 19.7687C67.3941 19.7687 68.0343 19.8887 68.5909 20.1288C69.1475 20.3653 69.584 20.709 69.9005 21.1601C70.217 21.6112 70.3752 22.155 70.3752 22.7917C70.3752 23.2173 70.3043 23.5956 70.1624 23.9266C70.0242 24.254 69.8296 24.5451 69.5786 24.7997C69.3276 25.0507 69.0311 25.2781 68.6891 25.4818C68.4018 25.6528 68.1653 25.831 67.9798 26.0165C67.7979 26.2021 67.6615 26.4167 67.5705 26.6604C67.4832 26.9042 67.4377 27.2043 67.4341 27.5608V27.7463H65.366ZM66.4465 31.2386C66.0827 31.2386 65.7716 31.1112 65.5134 30.8566C65.2587 30.5983 65.1332 30.2891 65.1369 29.929C65.1332 29.5725 65.2587 29.2669 65.5134 29.0122C65.7716 28.7576 66.0827 28.6303 66.4465 28.6303C66.792 28.6303 67.0958 28.7576 67.3577 29.0122C67.6196 29.2669 67.7524 29.5725 67.7561 29.929C67.7524 30.169 67.6888 30.3891 67.5651 30.5892C67.445 30.7857 67.2868 30.9439 67.0903 31.0639C66.8939 31.1803 66.6793 31.2386 66.4465 31.2386Z" fill="white"/>
</g>
<defs>
<filter id="filter0_d_123_160" x="62.3849" y="19.7686" width="8.63059" height="12.7507" filterUnits="userSpaceOnUse" color-interpolation-filters="sRGB">
<feFlood flood-opacity="0" result="BackgroundImageFix"/>
<feColorMatrix in="SourceAlpha" type="matrix" values="0 0 0 0 0 0 0 0 0 0 0 0 0 0 0 0 0 0 127 0" result="hardAlpha"/>
<feOffset dy="0.640247"/>
<feGaussianBlur stdDeviation="0.320124"/>
<feComposite in2="hardAlpha" operator="out"/>
<feColorMatrix type="matrix" values="0 0 0 0 0 0 0 0 0 0 0 0 0 0 0 0 0 0 0.25 0"/>
<feBlend mode="normal" in2="BackgroundImageFix" result="effect1_dropShadow_123_160"/>
<feBlend mode="normal" in="SourceGraphic" in2="effect1_dropShadow_123_160" result="shape"/>
</filter>
<linearGradient id="paint0_linear_123_160" x1="47.9691" y1="-5.75328" x2="48.8306" y2="141.949" gradientUnits="userSpaceOnUse">
<stop stop-color="#E1F8FF" stop-opacity="0"/>
<stop offset="1" stop-color="#E0F2FF"/>
</linearGradient>
<linearGradient id="paint1_linear_123_160" x1="46.8234" y1="21.5546" x2="47.0157" y2="8.09245" gradientUnits="userSpaceOnUse">
<stop stop-color="#416BFF"/>
<stop offset="1" stop-color="#D6E7FF"/>
</linearGradient>
<linearGradient id="paint2_linear_123_160" x1="43.9827" y1="91.6139" x2="42.509" y2="43.3281" gradientUnits="userSpaceOnUse">
<stop stop-color="white"/>
<stop offset="0.691489" stop-color="#0067FF"/>
</linearGradient>
<linearGradient id="paint3_linear_123_160" x1="57.9369" y1="70.4431" x2="57.9369" y2="11.8238" gradientUnits="userSpaceOnUse">
<stop stop-color="#82B4FF"/>
<stop offset="1" stop-color="#FAFFFF"/>
</linearGradient>
<linearGradient id="paint4_linear_123_160" x1="66.7444" y1="14.8618" x2="66.7444" y2="36.1363" gradientUnits="userSpaceOnUse">
<stop stop-color="#FF9599"/>
<stop offset="1" stop-color="#DA595E"/>
</linearGradient>
</defs>
</svg>
