<svg width="33" height="32" viewBox="0 0 33 32" fill="none" xmlns="http://www.w3.org/2000/svg">
<rect x="0.5" width="32" height="32" rx="8" fill="#EB882C" fill-opacity="0.1"/>
<g clip-path="url(#clip0_207_414)">
<path d="M13.1667 14.9665H12.6833C12.0238 14.9427 11.3663 15.0547 10.7518 15.2955C10.1373 15.5363 9.57886 15.9009 9.11112 16.3665L8.97778 16.5221V21.1221H11.2444V18.511L11.55 18.1665L11.6889 18.0054C12.4122 17.2624 13.3127 16.7156 14.3056 16.4165C13.8084 16.0383 13.4164 15.5391 13.1667 14.9665V14.9665Z" fill="#EB882C"/>
<path d="M23.9112 16.3499C23.4435 15.8843 22.885 15.5197 22.2705 15.2789C21.656 15.0381 20.9986 14.9261 20.339 14.9499C20.1367 14.9505 19.9346 14.9616 19.7334 14.9833C19.479 15.5204 19.0977 15.9876 18.6223 16.3444C19.6823 16.6376 20.6425 17.2137 21.4001 18.011L21.539 18.1666L21.839 18.511V21.1277H24.0279V16.5055L23.9112 16.3499Z" fill="#EB882C"/>
<path d="M12.6667 13.8835H12.8389C12.7589 13.1965 12.8794 12.5009 13.186 11.8808C13.4926 11.2607 13.9721 10.7427 14.5667 10.3891C14.3512 10.0599 14.0538 9.79222 13.7038 9.61241C13.3538 9.4326 12.963 9.34677 12.5699 9.36334C12.1767 9.37991 11.7946 9.4983 11.4609 9.70693C11.1272 9.91555 10.8535 10.2073 10.6664 10.5535C10.4794 10.8997 10.3854 11.2885 10.3938 11.682C10.4022 12.0754 10.5126 12.4599 10.7143 12.7978C10.9159 13.1358 11.2018 13.4155 11.5441 13.6097C11.8863 13.804 12.2732 13.906 12.6667 13.9058V13.8835Z" fill="#EB882C"/>
<path d="M20.0722 13.4665C20.0789 13.5942 20.0789 13.7222 20.0722 13.8499C20.1788 13.8668 20.2865 13.8761 20.3944 13.8776H20.5C20.8917 13.8568 21.2714 13.7348 21.6021 13.5236C21.9327 13.3124 22.2031 13.0192 22.3868 12.6725C22.5705 12.3258 22.6613 11.9375 22.6503 11.5453C22.6394 11.1531 22.5271 10.7704 22.3243 10.4345C22.1216 10.0986 21.8353 9.82093 21.4934 9.6285C21.1515 9.43607 20.7656 9.33545 20.3733 9.33643C19.9809 9.33742 19.5955 9.43998 19.2546 9.63413C18.9136 9.82828 18.6288 10.1074 18.4277 10.4443C18.9306 10.7726 19.344 11.2206 19.631 11.7481C19.918 12.2756 20.0696 12.866 20.0722 13.4665V13.4665Z" fill="#EB882C"/>
<path d="M16.4277 15.9554C17.7992 15.9554 18.911 14.8436 18.911 13.4721C18.911 12.1006 17.7992 10.9888 16.4277 10.9888C15.0562 10.9888 13.9443 12.1006 13.9443 13.4721C13.9443 14.8436 15.0562 15.9554 16.4277 15.9554Z" fill="#EB882C"/>
<path d="M16.5611 17.2779C15.8355 17.2486 15.1116 17.3664 14.4327 17.6242C13.7539 17.882 13.1343 18.2744 12.6111 18.7779L12.4722 18.9335V22.4502C12.4743 22.5647 12.499 22.6777 12.5449 22.7827C12.5907 22.8877 12.6568 22.9826 12.7394 23.0621C12.8219 23.1415 12.9193 23.2039 13.026 23.2457C13.1326 23.2875 13.2465 23.3079 13.3611 23.3057H19.7444C19.8589 23.3079 19.9728 23.2875 20.0795 23.2457C20.1861 23.2039 20.2835 23.1415 20.3661 23.0621C20.4486 22.9826 20.5147 22.8877 20.5605 22.7827C20.6064 22.6777 20.6311 22.5647 20.6333 22.4502V18.9446L20.4999 18.7779C19.9801 18.2729 19.3626 17.8793 18.6853 17.6214C18.008 17.3635 17.2851 17.2466 16.5611 17.2779V17.2779Z" fill="#EB882C"/>
</g>
<defs>
<clipPath id="clip0_207_414">
<rect width="20" height="20" fill="white" transform="translate(6.5 6)"/>
</clipPath>
</defs>
</svg>
