<svg width="33" height="32" viewBox="0 0 33 32" fill="none" xmlns="http://www.w3.org/2000/svg">
<rect x="0.5" width="32" height="32" rx="8" fill="#59BF87" fill-opacity="0.1"/>
<path fill-rule="evenodd" clip-rule="evenodd" d="M12.7964 19.7035V24.3332H20.2038V19.7035H24.8334V12.2961H20.2038V7.6665H12.7964V12.2961H8.16675V19.7035H12.7964ZM17.6575 12.529H16.4403C16.3751 12.529 16.3355 12.5401 16.3139 12.5506C15.9272 12.7393 15.685 13.0722 15.536 13.4665C15.5086 13.539 15.4847 13.6126 15.4641 13.6864H14.5114C14.5492 13.5072 14.6006 13.3223 14.6698 13.1391C14.8748 12.5969 15.2482 12.0404 15.9079 11.7185C16.0903 11.6295 16.2785 11.6031 16.4403 11.603H17.6575C17.9132 11.603 18.1205 11.8103 18.1205 12.066C18.1205 12.3217 17.9132 12.529 17.6575 12.529ZM13.7223 14.1493C13.4667 14.1493 13.2535 14.3604 13.3226 14.6066C13.59 15.56 14.6774 16.3018 16.0372 16.4407V17.1621C15.7154 17.17 15.3811 17.1956 15.0975 17.2782C14.876 17.3427 14.6412 17.4532 14.4616 17.6549C14.2736 17.8661 14.1853 18.1329 14.1853 18.4304C14.1853 18.7282 14.2733 18.9952 14.4611 19.2069C14.6406 19.4091 14.8754 19.5201 15.0971 19.5849C15.2453 19.6282 15.4073 19.6559 15.5742 19.6736V18.7414C15.4949 18.73 15.4224 18.7153 15.3568 18.6961C15.2313 18.6595 15.1767 18.6183 15.1537 18.5923C15.1389 18.5757 15.1112 18.5384 15.1112 18.4304C15.1112 18.3235 15.1387 18.2869 15.1532 18.2707C15.1761 18.2449 15.2307 18.2038 15.3564 18.1672C15.5341 18.1154 15.7628 18.096 16.0372 18.0888V18.7747L16.0371 19.7014L16.0372 20.6308H14.6483V21.5567H18.352V20.6308H16.9631V18.0675C17.4731 18.0275 17.8866 17.9154 18.1976 17.7149C18.6354 17.4328 18.8149 17.0128 18.8149 16.5671C18.8149 16.3248 18.7618 16.092 18.6432 15.8858C19.164 15.5576 19.5359 15.1118 19.6776 14.6066C19.7467 14.3604 19.5336 14.1493 19.2779 14.1493H13.7223ZM16.9631 17.138C17.3375 17.1015 17.5649 17.0212 17.6961 16.9366C17.837 16.8458 17.889 16.7385 17.889 16.5671C17.889 16.4367 17.8595 16.3484 17.7832 16.2756C17.5254 16.3551 17.2503 16.4114 16.9631 16.4407V17.138Z" fill="#59BF87"/>
</svg>
