<svg width="55" height="55" viewBox="0 0 55 55" fill="none" xmlns="http://www.w3.org/2000/svg">
<path d="M18.4276 38.0941V41.3198C18.4276 42.7171 17.8801 44.057 16.9054 45.045C15.9308 46.033 14.6088 46.588 13.2305 46.588C11.8521 46.588 10.5301 46.033 9.55548 45.045C8.58082 44.057 8.03327 42.7171 8.03327 41.3198V33.7858C4.38864 31.7712 2.2525 29.8179 1.00275 28.2051V41.3421C0.968219 42.9916 1.2589 44.6315 1.85774 46.1656C2.45659 47.6997 3.35154 49.0972 4.49015 50.2761C5.62876 51.4551 6.98811 52.3917 8.48849 53.0312C9.98887 53.6706 11.6001 54 13.2277 54C14.8553 54 16.4665 53.6706 17.9669 53.0312C19.4673 52.3917 20.8266 51.4551 21.9652 50.2761C23.1038 49.0972 23.9988 47.6997 24.5976 46.1656C25.1965 44.6315 25.4872 42.9916 25.4526 41.3421V40.0697C22.8651 39.4391 20.5307 38.7806 18.4276 38.0941Z" fill="#0060AF"/>
<path d="M53.8666 20.682V24.8285C53.762 25.6544 52.9472 28.7964 46.8361 32.3792C43.5378 34.234 40.0556 35.7305 36.4472 36.8438C34.3606 37.5191 32.0429 38.1888 29.4167 38.8306C28.7781 38.9924 28.1174 39.1431 27.4458 39.2993C26.7686 39.1431 26.1024 38.9868 25.4583 38.825C22.8487 38.1832 20.5033 37.5135 18.4333 36.8383C14.8215 35.7296 11.3369 34.2329 8.03892 32.3737C1.091 28.2885 1.01392 24.795 1.01392 24.622V20.682C1.01521 20.0729 1.06122 19.4648 1.15155 18.8627C2.0049 20.4253 3.90431 22.6631 8.04443 25.0405C11.3498 26.8729 14.8331 28.3541 18.4388 29.4605C20.5254 30.1358 22.8432 30.7999 25.4638 31.4417C26.0694 31.5924 26.6915 31.7319 27.3246 31.8825H27.4513H27.5834L29.4222 31.4473C32.0263 30.8055 34.3772 30.1413 36.4527 29.4661C40.0557 28.3592 43.5369 26.88 46.8416 25.0517C50.9817 22.6799 52.8976 20.4588 53.7455 18.885C53.8304 19.48 53.8709 20.0807 53.8666 20.682V20.682Z" fill="#D5444A"/>
<path d="M46.8303 33.808V41.3365C46.853 42.0424 46.7354 42.7457 46.4845 43.4046C46.2337 44.0635 45.8547 44.6645 45.3701 45.172C44.8856 45.6795 44.3053 46.083 43.6638 46.3586C43.0222 46.6341 42.3326 46.7761 41.6359 46.7761C40.9391 46.7761 40.2495 46.6341 39.608 46.3586C38.9665 46.083 38.3862 45.6795 37.9016 45.172C37.417 44.6645 37.0381 44.0635 36.7872 43.4046C36.5364 42.7457 36.4188 42.0424 36.4414 41.3365V38.0941C34.3383 38.7712 31.9949 39.4223 29.411 40.0473V41.3142C29.3764 42.9636 29.6671 44.6035 30.2659 46.1376C30.8648 47.6717 31.7597 49.0692 32.8984 50.2481C34.037 51.427 35.3963 52.3637 36.8967 53.0031C38.3971 53.6426 40.0083 53.972 41.6359 53.972C43.2635 53.972 44.8747 53.6426 46.3751 53.0031C47.8754 52.3637 49.2348 51.427 50.3734 50.2481C51.512 49.0692 52.407 47.6717 53.0058 46.1376C53.6047 44.6035 53.8953 42.9636 53.8608 41.3142V28.2273C52.6056 29.8513 50.4694 31.799 46.8303 33.808Z" fill="#0060AF"/>
<path d="M21.874 11.3068C20.8039 10.2209 19.5437 9.34661 18.1578 8.72848C17.5883 9.28926 16.909 9.72266 16.1638 10.0007C15.4187 10.2788 14.6244 10.3953 13.832 10.3427C13.0397 10.2901 12.2671 10.0695 11.5642 9.69537C10.8612 9.3212 10.2435 8.80169 9.75092 8.17041C7.85555 8.74147 6.1251 9.76995 4.70788 11.1677C3.29065 12.5654 2.22897 14.2906 1.61383 16.1955C1.49226 16.5435 1.39474 16.8997 1.32202 17.2615C1.87257 18.6678 3.52422 21.0787 8.03321 23.7407V20.0518C8.03321 18.6546 8.58076 17.3146 9.55542 16.3266C10.5301 15.3386 11.852 14.7836 13.2304 14.7836C14.6088 14.7836 15.9307 15.3386 16.9054 16.3266C17.88 17.3146 18.4276 18.6546 18.4276 20.0518V28.2109C20.5086 28.8861 22.832 29.5558 25.4526 30.1976V20.0909C25.4567 18.4599 25.1426 16.8442 24.5285 15.3367C23.9144 13.8291 23.0122 12.4596 21.874 11.3068V11.3068Z" fill="#D5444A"/>
<path d="M53.2609 16.2624C52.6519 14.3492 51.5913 12.6157 50.1714 11.2123C48.7514 9.80888 47.0149 8.77807 45.1128 8.20935C44.6202 8.84063 44.0025 9.36014 43.2995 9.73431C42.5965 10.1085 41.8239 10.329 41.0316 10.3816C40.2393 10.4342 39.445 10.3177 38.6999 10.0396C37.9547 9.7616 37.2755 9.3282 36.7059 8.76743C34.5345 9.73632 32.6884 11.3251 31.393 13.3399C30.0976 15.3547 29.4089 17.7082 29.4111 20.1131V30.2644C32.0207 29.6227 34.3661 28.953 36.4416 28.2777V20.0907C36.4189 19.3849 36.5366 18.6816 36.7874 18.0226C37.0382 17.3637 37.4172 16.7627 37.9018 16.2552C38.3864 15.7478 38.9667 15.3442 39.6082 15.0687C40.2497 14.7931 40.9393 14.6511 41.636 14.6511C42.3328 14.6511 43.0224 14.7931 43.6639 15.0687C44.3055 15.3442 44.8857 15.7478 45.3703 16.2552C45.8549 16.7627 46.2339 17.3637 46.4847 18.0226C46.7356 18.6816 46.8531 19.3849 46.8305 20.0907V23.7908C51.3505 21.1399 52.9691 18.7346 53.5527 17.3227C53.4762 16.9637 53.3788 16.6096 53.2609 16.2624V16.2624Z" fill="#D5444A"/>
<path d="M40.6974 8.60551C43.0417 8.60551 44.9421 6.6791 44.9421 4.30276C44.9421 1.92641 43.0417 0 40.6974 0C38.3531 0 36.4526 1.92641 36.4526 4.30276C36.4526 6.6791 38.3531 8.60551 40.6974 8.60551Z" fill="#0060AF"/>
<path d="M14.172 8.60551C16.5163 8.60551 18.4167 6.6791 18.4167 4.30276C18.4167 1.92641 16.5163 0 14.172 0C11.8277 0 9.92725 1.92641 9.92725 4.30276C9.92725 6.6791 11.8277 8.60551 14.172 8.60551Z" fill="#0060AF"/>
</svg>
