<svg width="20" height="21" viewBox="0 0 20 21" fill="none" xmlns="http://www.w3.org/2000/svg">
<path fill-rule="evenodd" clip-rule="evenodd" d="M9.99984 18.3366C14.6022 18.3366 18.3332 14.6056 18.3332 10.0033C18.3332 5.40088 14.6022 1.66992 9.99984 1.66992C5.39746 1.66992 1.6665 5.40088 1.6665 10.0033C1.6665 14.6056 5.39746 18.3366 9.99984 18.3366ZM6.24037 7.1476C6.24037 6.03432 7.14286 5.13184 8.25613 5.13184H12.7356C13.8489 5.13184 14.7514 6.03432 14.7514 7.1476V12.8589C14.7514 13.9722 13.8489 14.8747 12.7356 14.8747H8.25613C7.14286 14.8747 6.24037 13.9722 6.24037 12.8589V11.7978H7.58421V12.8589C7.58421 13.23 7.88504 13.5308 8.25613 13.5308H12.7356C13.1067 13.5308 13.4075 13.23 13.4075 12.8589V7.1476C13.4075 6.7765 13.1067 6.47568 12.7356 6.47568H8.25613C7.88504 6.47568 7.58421 6.7765 7.58421 7.1476V8.21267H6.24037V7.1476ZM5.78769 8.01654L3.47195 9.98615L5.78769 11.9914V10.6932V10.676H10.4744V9.33216L5.78769 9.33216V9.30242V8.01654Z" fill="#879BB1"/>
</svg>
