<svg width="32" height="32" viewBox="0 0 32 32" fill="none" xmlns="http://www.w3.org/2000/svg">
<rect width="32" height="32" rx="8" fill="#2A85FF" fill-opacity="0.1"/>
<path fill-rule="evenodd" clip-rule="evenodd" d="M9.62956 9.14608C9.27409 9.14608 8.98593 9.43425 8.98593 9.78971V15.694H12.01C12.3328 15.694 12.6417 15.5623 12.8652 15.3294L13.9957 14.1517C14.2192 13.9189 14.5281 13.7872 14.8509 13.7872H23.0128V11.3735C23.0128 11.0181 22.7247 10.7299 22.3692 10.7299H16.3834C15.9253 10.7299 15.486 10.5479 15.1621 10.224L14.2727 9.3346C14.1519 9.2139 13.9882 9.14608 13.8175 9.14608H9.62956ZM7.90234 9.78971V15.7017C7.27318 15.7737 6.80099 16.3367 6.85822 16.9838L7.37757 22.857C7.43168 23.4688 7.94416 23.938 8.55839 23.938H23.2936C23.9091 23.938 24.4222 23.4669 24.4747 22.8537L25.1409 15.0738C25.1962 14.4278 24.7244 13.8668 24.0964 13.795V11.3735C24.0964 10.4196 23.3231 9.64632 22.3692 9.64632H16.3834C16.2127 9.64632 16.049 9.5785 15.9283 9.4578L15.0389 8.56839C14.7149 8.24447 14.2756 8.0625 13.8175 8.0625H9.62956C8.67565 8.0625 7.90234 8.8358 7.90234 9.78971ZM18.6729 18.755C19.5348 18.755 20.2335 18.0563 20.2335 17.1945C20.2335 16.3326 19.5348 15.6339 18.6729 15.6339C17.811 15.6339 17.1123 16.3326 17.1123 17.1945C17.1123 18.0563 17.811 18.755 18.6729 18.755ZM18.674 19.5343C17.1103 19.5343 15.8369 20.583 15.8369 21.8751C15.8369 21.9625 15.9056 22.0312 15.993 22.0312H21.3551C21.4425 22.0312 21.5112 21.9625 21.5112 21.8751C21.5112 20.583 20.2377 19.5343 18.674 19.5343Z" fill="#2A85FF"/>
</svg>
