<svg width="20" height="21" viewBox="0 0 20 21" fill="none" xmlns="http://www.w3.org/2000/svg">
<path fill-rule="evenodd" clip-rule="evenodd" d="M8.23486 1.66992H11.936V2.00927C12.2218 5.1861 13.1675 5.76098 16.0526 4.41548L16.372 4.23107L18.2226 7.43635L18.0421 7.54054C15.3103 9.43705 15.2824 10.5517 18.0113 12.4366L18.2226 12.5586L18.2135 12.5744L16.372 15.7639L16.0197 15.5605C13.0794 14.2161 12.1833 14.8775 11.9485 18.3366L11.936 18.1843V18.3251H8.23486V17.7854C7.9247 14.7201 6.93057 14.2506 3.99973 15.6479L3.7988 15.7639L1.94824 12.5586L2.42716 12.2822C4.85085 10.5323 4.85002 9.43895 2.37975 7.68548L1.94824 7.43635L3.7988 4.23107L3.90202 4.29066C6.89555 5.72355 7.92674 5.29302 8.23486 2.22599V1.66992ZM13.7866 9.9975C13.7866 12.0416 12.1295 13.6986 10.0854 13.6986C8.04133 13.6986 6.38428 12.0416 6.38428 9.9975C6.38428 7.9534 8.04133 6.29635 10.0854 6.29635C12.1295 6.29635 13.7866 7.9534 13.7866 9.9975ZM14.7119 9.9975C14.7119 12.5526 12.6406 14.6239 10.0854 14.6239C7.53034 14.6239 5.459 12.5526 5.459 9.9975C5.459 7.44241 7.53034 5.37107 10.0854 5.37107C12.6406 5.37107 14.7119 7.44241 14.7119 9.9975ZM9.46045 8.02083H10.7104V9.37907H12.0679V10.6291H10.7104V11.9865H9.46045V10.6291H8.10221L8.10221 9.37907H9.46045V8.02083Z" fill="#879BB1"/>
</svg>
