<svg width="20" height="21" viewBox="0 0 20 21" fill="none" xmlns="http://www.w3.org/2000/svg">
<path d="M11.8183 1.86682C11.9343 1.81014 12.0639 1.78719 12.1924 1.8006C12.3208 1.814 12.4429 1.86322 12.5447 1.94263L18.7473 6.76686C18.8272 6.82897 18.8925 6.90793 18.9385 6.99813C18.9845 7.08833 19.01 7.18755 19.0133 7.28874C19.0166 7.38994 18.9976 7.49061 18.9575 7.58361C18.9175 7.67661 18.8575 7.75964 18.7817 7.82681L12.5791 13.3402C12.4798 13.4284 12.3571 13.486 12.2258 13.5061C12.0945 13.5262 11.9601 13.5079 11.839 13.4535C11.7178 13.399 11.615 13.3107 11.5428 13.1991C11.4707 13.0876 11.4323 12.9576 11.4324 12.8247V10.1452C11.1071 10.2003 10.6825 10.2968 10.1863 10.4622C8.98302 10.8647 7.35519 11.6738 5.71771 13.3126C5.61752 13.4132 5.48872 13.4804 5.3489 13.505C5.20909 13.5296 5.06509 13.5104 4.93658 13.4501C4.80808 13.3898 4.70134 13.2912 4.63095 13.1679C4.56057 13.0446 4.52998 12.9026 4.54336 12.7613C4.74046 10.5959 5.37175 9.01632 6.23046 7.87781C6.96749 6.89513 7.96909 6.14261 9.1181 5.70829C9.85917 5.4274 10.6405 5.26732 11.4324 5.23413V2.48708C11.4321 2.35792 11.4681 2.23128 11.5364 2.12161C11.6046 2.01194 11.7023 1.92366 11.8183 1.86682ZM1.09473 6.62213C1.09473 5.70823 1.45777 4.83176 2.104 4.18553C2.75023 3.5393 3.6267 3.17626 4.5406 3.17626H7.2973C7.48008 3.17626 7.65538 3.24887 7.78462 3.37811C7.91387 3.50736 7.98648 3.68265 7.98648 3.86543C7.98648 4.04821 7.91387 4.22351 7.78462 4.35275C7.65538 4.482 7.48008 4.55461 7.2973 4.55461H4.5406C3.99226 4.55461 3.46638 4.77243 3.07864 5.16017C2.6909 5.54791 2.47308 6.07379 2.47308 6.62213V14.8922C2.47308 15.4406 2.6909 15.9665 3.07864 16.3542C3.46638 16.7419 3.99226 16.9598 4.5406 16.9598H12.8107C13.359 16.9598 13.8849 16.7419 14.2727 16.3542C14.6604 15.9665 14.8782 15.4406 14.8782 14.8922V13.5139C14.8782 13.3311 14.9508 13.1558 15.0801 13.0266C15.2093 12.8973 15.3846 12.8247 15.5674 12.8247C15.7502 12.8247 15.9255 12.8973 16.0547 13.0266C16.184 13.1558 16.2566 13.3311 16.2566 13.5139V14.8922C16.2566 15.8061 15.8935 16.6826 15.2473 17.3288C14.6011 17.9751 13.7246 18.3381 12.8107 18.3381H4.5406C3.6267 18.3381 2.75023 17.9751 2.104 17.3288C1.45777 16.6826 1.09473 15.8061 1.09473 14.8922V6.62213Z" fill="#879BB1"/>
</svg>
