<svg width="20" height="21" viewBox="0 0 20 21" fill="none" xmlns="http://www.w3.org/2000/svg">
<path d="M5.00016 10.8379C2.70016 10.8379 0.833496 12.6962 0.833496 15.0046C0.833496 17.3129 2.70016 19.1712 5.00016 19.1712C7.30016 19.1712 9.16683 17.3046 9.16683 15.0046C9.16683 12.7046 7.3085 10.8379 5.00016 10.8379ZM3.30016 13.3046H5.00016C5.31683 13.3046 5.56683 13.5629 5.56683 13.8712C5.56683 14.1796 5.31683 14.4379 5.00016 14.4379H3.30016C2.9835 14.4379 2.7335 14.1796 2.7335 13.8712C2.7335 13.5629 2.9835 13.3046 3.30016 13.3046ZM6.70016 16.7046H3.30016C2.9835 16.7046 2.7335 16.4462 2.7335 16.1379C2.7335 15.8296 2.99183 15.5712 3.30016 15.5712H6.7085C7.02516 15.5712 7.27516 15.8296 7.27516 16.1379C7.27516 16.4462 7.01683 16.7046 6.70016 16.7046Z" fill="#879BB1"/>
<path d="M14.1665 2.50391H5.83317C3.33317 2.50391 1.6665 3.75391 1.6665 6.67057V9.28724C1.6665 9.89557 2.2915 10.2789 2.84984 10.0372C3.7665 9.63724 4.80817 9.48724 5.89984 9.66224C8.08317 10.0206 9.8665 11.7456 10.3082 13.9122C10.4332 14.5456 10.4498 15.1622 10.3665 15.7539C10.2998 16.2456 10.6998 16.6789 11.1915 16.6789H14.1665C16.6665 16.6789 18.3332 15.4289 18.3332 12.5122V6.67057C18.3332 3.75391 16.6665 2.50391 14.1665 2.50391ZM14.5582 7.16224L11.9498 9.24557C11.3998 9.68724 10.6998 9.90391 9.99984 9.90391C9.29984 9.90391 8.5915 9.68724 8.04984 9.24557L5.4415 7.16224C5.17484 6.94557 5.13317 6.54557 5.3415 6.27891C5.55817 6.01224 5.94984 5.96224 6.2165 6.17891L8.82484 8.26224C9.45817 8.77057 10.5332 8.77057 11.1665 8.26224L13.7748 6.17891C14.0415 5.96224 14.4415 6.00391 14.6498 6.27891C14.8665 6.54557 14.8248 6.94557 14.5582 7.16224Z" fill="#879BB1"/>
</svg>
