<svg width="40" height="40" viewBox="0 0 40 40" fill="none" xmlns="http://www.w3.org/2000/svg">
<rect width="40" height="40" rx="8" fill="#2A85FF" fill-opacity="0.1"/>
<rect x="10" y="11.3359" width="21.6958" height="7.28906" rx="2" fill="#0048D4"/>
<circle cx="20.6128" cy="12.4121" r="4.0957" fill="#FFBA33"/>
<path d="M8.27393 16.2649C8.27393 15.1604 9.16936 14.2649 10.2739 14.2649H30.2095C31.0468 14.2649 31.7256 13.5862 31.7256 12.7489V12.5273V29.6829C31.7256 30.7875 30.8302 31.6829 29.7256 31.6829H10.2739C9.16936 31.6829 8.27393 30.7875 8.27393 29.6829V16.2649Z" fill="#027EF1"/>
<path d="M8.27393 20.5645H15.4106C16.6258 20.5645 17.6108 21.5495 17.6108 22.7646C17.6108 23.9798 16.6258 24.9648 15.4106 24.9648H8.27393V20.5645Z" fill="#0048D4"/>
</svg>
